<?xml version="1.0" encoding="UTF-8"?>
<!DOCTYPE svg PUBLIC "-//W3C//DTD SVG 1.1//EN" "http://www.w3.org/Graphics/SVG/1.1/DTD/svg11.dtd">
<!-- Creator: CorelDRAW 2018 (64-Bit) -->
<svg xmlns="http://www.w3.org/2000/svg" xml:space="preserve" width="22px" height="22px" version="1.1" style="shape-rendering:geometricPrecision; text-rendering:geometricPrecision; image-rendering:optimizeQuality; fill-rule:evenodd; clip-rule:evenodd"
viewBox="0 0 0.913 0.913"
 xmlns:xlink="http://www.w3.org/1999/xlink">
 <g id="Layer_x0020_1">
  <metadata id="CorelCorpID_0Corel-Layer"/>
  <path fill="#000000" d="M0.075 0.553l0.45 0 0 -0.193c0,-0.02 0.016,-0.037 0.037,-0.037 0.02,0 0.037,0.017 0.037,0.037l0 0.193 0.239 0c0.021,0 0.04,0.008 0.053,0.022 0.014,0.013 0.022,0.032 0.022,0.053l0 0.21c0,0.02 -0.008,0.039 -0.022,0.052l0 0.001c-0.013,0.013 -0.032,0.022 -0.053,0.022l-0.763 0c-0.021,0 -0.039,-0.009 -0.053,-0.022l0 -0.001c-0.014,-0.013 -0.022,-0.032 -0.022,-0.052l0 -0.21c0,-0.021 0.008,-0.04 0.022,-0.053 0.014,-0.014 0.032,-0.022 0.053,-0.022zm0.269 0.132c0.026,0 0.047,0.022 0.047,0.048 0,0.026 -0.021,0.047 -0.047,0.047 -0.027,0 -0.048,-0.021 -0.048,-0.047 0,-0.026 0.021,-0.048 0.048,-0.048zm-0.173 0c0.026,0 0.047,0.022 0.047,0.048 0,0.026 -0.021,0.047 -0.047,0.047 -0.026,0 -0.047,-0.021 -0.047,-0.047 0,-0.026 0.021,-0.048 0.047,-0.048zm0.272 -0.337c0,0.02 -0.017,0.037 -0.037,0.037 -0.021,0 -0.037,-0.017 -0.037,-0.037 0,-0.053 0.021,-0.101 0.056,-0.136 0.035,-0.035 0.083,-0.057 0.137,-0.057 0.053,0 0.101,0.022 0.136,0.057 0.035,0.035 0.057,0.083 0.057,0.136 0,0.02 -0.017,0.037 -0.037,0.037 -0.021,0 -0.037,-0.017 -0.037,-0.037 0,-0.033 -0.014,-0.063 -0.035,-0.084 -0.022,-0.022 -0.052,-0.035 -0.084,-0.035 -0.033,0 -0.063,0.013 -0.084,0.035 -0.022,0.021 -0.035,0.051 -0.035,0.084zm-0.156 0c0,0.02 -0.016,0.037 -0.036,0.037 -0.021,0 -0.037,-0.017 -0.037,-0.037 0,-0.096 0.039,-0.183 0.102,-0.246 0.063,-0.063 0.15,-0.102 0.246,-0.102 0.096,0 0.183,0.039 0.246,0.102 0.063,0.063 0.102,0.15 0.102,0.246 0,0.02 -0.017,0.037 -0.037,0.037 -0.021,0 -0.037,-0.017 -0.037,-0.037 0,-0.076 -0.031,-0.144 -0.08,-0.194 -0.05,-0.049 -0.119,-0.08 -0.194,-0.08 -0.076,0 -0.145,0.031 -0.194,0.08 -0.05,0.05 -0.081,0.118 -0.081,0.194zm0.551 0.279l-0.763 0c0,0 -0.001,0 -0.001,0 0,0 0,0.001 0,0.001l0 0.21c0,0 0,0 0,0l0 0c0,0.001 0.001,0.001 0.001,0.001l0.763 0c0.001,0 0.001,0 0.001,-0.001l0 0c0,0 0,0 0,0l0 -0.21c0,0 0,-0.001 0,-0.001 0,0 0,0 -0.001,0z"/>
 </g>
</svg>
